<?xml version="1.0" encoding="UTF-8"?>
<!DOCTYPE svg PUBLIC "-//W3C//DTD SVG 1.0//EN" "http://www.w3.org/TR/2001/REC-SVG-20010904/DTD/svg10.dtd">
<!-- Creator: CorelDRAW 2017 -->
<svg xmlns="http://www.w3.org/2000/svg" xml:space="preserve" width="356px" height="200px" version="1.0" shape-rendering="geometricPrecision" text-rendering="geometricPrecision" image-rendering="optimizeQuality" fill-rule="evenodd" clip-rule="evenodd"
viewBox="0 0 35600 20025"
 xmlns:xlink="http://www.w3.org/1999/xlink">
 <g id="Layer_x0020_1">
  <metadata id="CorelCorpID_0Corel-Layer"/>
  <g id="_1960129824176">
   <path fill="#E6E7E8" d="M0 0l35600 0 0 20025 -35600 0 0 -20025z"/>
   <path fill="#373435" fill-opacity="0.031373" d="M2102 17538c67,103 111,202 155,311 31,64 48,183 198,183 44,0 107,-14 163,-45 63,-33 111,-82 135,-159l61 -201 145 -72 10 10c-19,76 -24,148 -24,206 0,169 145,233 262,233 68,0 128,-33 128,-95 0,-81 -34,-216 -78,-338 68,-68 136,-136 214,-191l12 6c34,144 53,286 53,381 0,92 -41,195 -75,263 -70,132 -194,237 -344,237 -114,0 -240,-57 -327,-163l-5 0c-83,101 -209,194 -412,194l-63 0c-10,134 -39,229 -82,313 -122,237 -480,404 -817,404 -470,0 -705,-272 -705,-632 0,-223 72,-431 184,-577l92 37c-70,134 -116,261 -116,385 0,338 274,499 591,499 293,0 657,-188 722,-404 -24,-237 -114,-348 -250,-565 42,-72 95,-144 160,-220l13 0zm5414 -1273c99,62 196,136 290,221 -53,74 -118,142 -201,201 -94,-76 -189,-142 -286,-212 66,-74 131,-146 197,-210zm51 925c-160,0 -291,105 -291,183 0,167 320,219 702,217 -48,-196 -215,-400 -411,-400zm-359 894c208,0 390,-6 528,-41 155,-39 286,-118 286,-171 0,-15 0,-31 -5,-46 -87,9 -186,9 -274,9 -281,0 -496,-64 -581,-223 -22,-43 -36,-93 -36,-148 0,-153 65,-303 181,-406 97,-84 204,-138 313,-138 196,0 354,159 463,408 60,136 101,292 101,490 0,132 -36,243 -118,326 -153,148 -434,204 -865,204l-197 0 0 0 -51 0c-106,0 -184,-19 -244,-66l-10 0c2,24 5,49 5,72 0,97 -32,220 -97,319 -192,286 -400,410 -579,410 -182,0 -405,-70 -606,-161l36 -70c66,27 155,45 279,45 325,0 751,-313 804,-617 -12,-25 -33,-58 -65,-93 -94,-113 -155,-208 -211,-307 49,-95 92,-171 134,-239l16 -2c139,282 265,445 546,445l43 0 0 0 204 0zm-1406 299c24,-130 26,-276 26,-412l0 -202c0,-377 -48,-925 -87,-1281 68,-75 163,-161 238,-219l21 6c51,449 64,971 64,1450 0,126 -5,250 -17,340 -8,114 -73,200 -214,332l-31 -14zm-1447 -596c7,177 94,317 397,317 189,0 349,-49 526,-133 31,-15 48,-33 48,-50 0,-111 -84,-257 -228,-391 -138,-126 -322,-237 -494,-311 -58,-25 -77,-52 -77,-76 0,-52 68,-159 123,-235l20 -2c196,103 416,255 579,426 148,157 240,315 240,488 0,128 -39,250 -102,361 -216,109 -446,191 -674,191 -276,0 -465,-129 -465,-434 0,-33 0,-85 12,-151l95 0zm-500 -502l172 278c63,103 121,214 121,391l0 227c0,183 -117,379 -306,572 -147,132 -278,188 -399,188 -180,0 -386,-56 -623,-159l26 -70c76,21 163,37 270,37 341,-2 690,-251 850,-556 19,-35 27,-68 27,-91 0,-35 -20,-74 -34,-109 -87,-165 -184,-315 -291,-453 56,-88 111,-173 172,-257l15 2z"/>
   <path fill="#373435" fill-opacity="0.078431" d="M15337 20025l-62 0 -3 0 -1 0 -7 0 -5 0 -212 0 -22 0 -334 0 -201 0 -25 0 -4 0 -20 0 -16 0 -20 0 -113 0 -237 0 -116 0 -159 0 -173 0 -18 0 -9 0 -10 0 0 0 -3 0 -1 0 -4 0 -86 0 -1 0 -100 0 -7 0 -135 0 -8 0 0 0 -20 0 -19 0 -3 0 -15 0 -106 0 -40 0 -45 0 -33 0 -104 0 0 0 -50 0 -19 0 -18 0 -15 0 -74 0 -3 0 -92 0 -15 0 -96 0 -11 0 -14 0 -32 0 -50 0 -104 0 0 0 -14 0 -31 0 -43 0 -39 0 -116 0 -1 0 -5 0 -1 0 -88 0 -125 0 -29 0 -42 0 -16 0 -44 0 -6 0 -1 0 -15 0 -15 0 -21 0 0 0 -92 0 -4 0 -60 0 -8 0 -315 0 -112 0 -96 0 -13 0 -16 0 -15 0 -27 0 -26 0 -27 0 -75 0 -54 0 -15 0 0 0 -8 0 0 0 0 0 -20 0 -109 0 -33 0 -3 0 -2 0 -9 0 -11 0 -1 0 -76 0 -122 0 -554 0 -79 0 -11 0 -19 0 -18 0 -1 0 -8 0 -138 0 -5 0 -19 0 -10 0 -96 0 -53 0 -19 0 -2 0 -13 0 0 0 -39 0 -8 0 -11 0 -1 0 -45 0 -25 0 -25 0 -387 0 -205 0 -110 0 -1 0 -42 0 -51 0 -20 0 -135 0 -43 0 -33 0 -38 0 -9 0 0 0 -22 0 -19 0 -4 0 -144 0 -18 0 -21 0 -117 0 -19 0 0 0 -33 0 -14 0 -23 0 -4 0 -1 0 -7 0 -2 0 -3 0 -15 0 -2 0 0 0 -1 0 -5 0 0 0 -2 0 -3 0 0 0 -2 0 -2 0 -1 0 -1 0 -1 0 -6 0 -5 0 -4 0 0 0 -10 0 -39 0 -9 0 -7 0 -10 0 -1 0 -3 0 0 0 -26 0 -1 0 -7 0 0 0 -2 0 -5 0 -1 0 -15 0 -17 0 -17 0 -1 0 -28 0 -48 0 -1 0 -30 0 -17 0 -24 0 -65 0 -29 0 0 0 -6 0 -1 0 -1 0 -19 0 -6 0 -9 0 -1 0 -3 0 -4 0 -1 0 0 0 -1 0 -12 0 -51 0 -54 0 -2 0 -12 0 -124 0 -23 0 -17 0 -36 0 -1 0 -18 0 -34 0 -126 0 -36 0 -192 0 -11 0 -28 0 -61 0 -58 0 -35 0 -17 0 -19 0 -238 0 -77 0 -47 0 -139 0 -16 0 -1 0 -117 0 -40 0 -5 0 -22 0 -49 0 -75 0 -97 0 -1 0 0 0 -10 0 -2 0 -114 0 -44 0 -1 0 -2 0 -28 0 0 0 -19 0 -7 0 -67 0 0 0 -47 0 -22 0 -1 0 -18 0 -22 0 -13 0 -2 0 -100 0 -2 0 0 0 -7 0 -11 0 -2 0 0 0 -1 0 -1 0 0 0 0 0 -37 0 -1 0 -52 0 -38 0 -57 0 -48 0 -44 0 0 0 -558 0 -4 0 -1 0 0 0 -138 0 -35 0 -25 0 -18 0 -57 0 -9 0 -2 0 -9 0 -1 0 -98 0 0 0 -4 0 -20 0 -19 0 -11 0 -6 0 -12 0 -44 0 -93 0 -12 0 -12 0 -8 0 0 0 -11 0 -1 0 -51 0 -22 0 -21 0 -21 0 0 0 -7 0 0 0 -45 0 -48 0 -1 0 0 0 -36 0 -27 0 0 0 -13 0 -6 0 -45 0 -54 0 -7 0 -2 0 -60 0 -2 0 -4 0 -1 0 -1 0 -22 0 -20 0 -52 0 0 0 -45 0 -9 0 0 0 -14 0 -3 0 -22 0 -13 0 -23 0 -49 0 -5 0 -5 0 -51 0 -1 0 -39 0 -67 0 -2 0 -9 0 0 0 -86 0 -37 0 -17 0 -1 0 -78 0 -5 0 -49 0 -9 0 -4 0 -22 0 -12 0 -11 0 -8 0 -1 0 -11 0 0 0 -62 0 -1 0 -9 0 0 0 -23 0 -37 0 -8 0 0 0 -23 0 -3 0 -50 0 0 0 -1 0 -15 0 -10 0 -15 0 -10 0 -6 0 -6 0 -1 0 -12 0 -1 0 -6 0 -31 0 -11 0 -64 0 -1 0 -67 0 -23 0 -47 0 -6 0 -62 0 -11 0 -1 0 -12 0 -7 0 -32 0 0 0 -23 0 -11 0 -12 0 -92 0 -32 0 -67 0 -1 0 -10 0 0 0 -49 0 0 0 -64 0 -9 0 -20 0 -17 0 -11 0 -16 0 -12 0 -17 0 -23 0 -4 0 -22 0 -43 0 -1 0 -1 0 -1 0 -1 0 -9 0 -11 0 -8 0 -1 0 -10 0 -1 0 -27 0 -46 0 -21 0 -48 0 -15 0 -5 0 0 0 -6 0 -48 0 0 0 -1 0 -57 0 -5 0 -1 0 -12 0 -1 0 -6 0 -32 0 -12 0 -62 0 -1 0 -69 0 -21 0 -43 0 0 0 0 0 0 -3 0 -17 0 -20 0 -4 0 -1 0 -7 0 -20 0 0 0 -2 0 -11 0 -9 0 -33 0 -21 0 -48 0 -2 0 -39 0 -68 0 -43 0 -102 0 -93 0 -21 0 -10 0 -15 0 -5 0 -6 0 -39 0 -3 0 0 0 -30 0 -17 0 -18 0 -25 0 -2 0 -14 0 -30 0 -5 0 -22 0 -12 0 -13 0 -1 0 -3 0 -45 0 -13 0 -122 0 -50 0 0 0 -147 0 -41 0 -1 0 -20 0 0 0 -26 0 -34 0 -37 0 -13 0 -17 0 -1 0 -11 0 -2 0 -10 0 -1 0 -3 0 -2 0 -11 0 -13 0 0 0 -41 0 0 0 -15 0 -5 0 -4 0 -9 0 -8 0 -10 0 -1 0 -6 0 -5 0 -50 0 -2 0 0 0 -4 0 -4 0 -16 0 -10 0 -25 0 -4 0 -1 0 -11 0 -7 0 -37 0 0 0 -2 0 0 0 -4 0 -28 0 -24 0 -47 0 -7 0 -67 0 -4 0 -9 0 -14 0 -1 0 0 0 -13 0 -2 0 -33 0 -33 0 -45 0 0 0 -9 0 -30 0 -22 0 -1 0 -29 0 -19 0 -16 0 0 0 -2 0 -12 0 -3 0 -44 0 -5 0 -1 0 0 0 -2 0 -7 0 -9 0 -5 0 -2 0 -16 0 -14 0 -15 0 -25 0 -12 0 -31 0 -1 0 -5 0 -5 0 -8 0 -31 0 -17 0 0 0 -10 0 -2 0 -64 0 -21 0 -7 0 -2 0 -9 0 -1 0 -6 0 -5 0 -25 0 -31 0 0 0 0 0 -45 0 0 0 -15 0 -11 0 -4 0 -19 0 -1 0 -1 0 -11 0 -5 0 0 0 -5 0 0 0 -4 0 -15 0 -5 0 0 0 -1 0 0 0 -13 0 -17 0 -1 0 -3 0 -5 0 -4 0 -17 0 -9 0 -16 0 -15 0 0 0 -33 0 -24 0 -10 0 -13 0 0 0 -9 0 0 0 -4 0 -4 0 -12 0 -51 0 -16 0 -2 0 -6 0 -2 0 0 0 -1 0 -1 0 0 0 -1 0 -1 0 -33 0 -5 0 -13 0 -1 0 -15 0 -23 0 -1 0 -149 0 -16 0 -1 0 -11 0 -32 0 -5 0 -43 0 0 0 -11 0 -3 0 -52 0 -5 0 -36 0 0 0 0 0 -2 0 -40 0 -73 0 -31 0 -2 0 -18 0 -18 0 -3 0 -49 0 -25 0 -45 0 -7 0 -22 0 0 0 -35 0 -25 0 -23 0 0 0 -3 0 -2 0 -14 0 -45 0 -22 0 -15 0 -1 0 -5 0 0 0 -34 0 -23 0 0 0 -41 0 -37 0 -10 0 -4 0 0 0 -2 0 -8 0 -43 0 -7 0 -31 0 0 0 -48 0 -1 0 -5 0 -1 0 -13 0 -10 0 -99 0 -7 0 -1 0 -15 0 -45 0 -51 0 -2 0 -45 0 -82 0 -21 0 -7 0 -74 0 0 0 -44 0 -6 0 -64 0 -2 0 0 0 -11 0 0 0 -35 0 -21 0 -1 0 -16 0 -21 0 -51 0 -43 0 -1 0 0 0 -5 0 -2 0 -42 0 -1 0 -2 0 -3 0 0 0 -10 0 -20 0 -4 0 -27 0 -35 0 0 0 -4 0 -2 0 -9 0 -12 0 -17 0 -5 0 -30 0 -2 0 -23 0 -34 0 -7 0 -6 0 -10 0 -20 0 -9 0 -8 0 -25 0 -15 0 -123 0 -19 0 -42 0 -47 0 -47 0 -3 0 -26 0 -56 0 -14 0 -37 0 -11 0 -25 0 -13 0 -52 0 0 0 -15 0 -25 0 -2 0 -9 0 -10 0 -1 0 -14 0 0 0 -34 0 -2 0 -12 0 -38 0 -11 0 -2 0 -2 0 0 0 -7 0 -11 0 0 0 -4 0 -2 0 -7 0 -15 0 -3 0 -2 0 -32 0 -12 0 -15 0 -12 0 -20 0 -40 0 -3 0 0 0 -20 0 -108 0 -51 0 -20 0 -53 0 -92 0 -99 0 -18 0 -41 0 -2 0 -18 0 -2 0 -41 0 -35 0 -35 0 -14 0 -37 0 -20 0 0 0 -1 0 -11 0 -2 0 -32 0 -4 0 0 0 -14 0 -52 0 -16 0 -9 0 -1 0 -41 0 0 0 -13 0 -11 0 -49 0 -40 0 -32 0 -64 0 -9 0 0 0 -1 0 -19 0 -16 0 -30 0 -19 0 -7 0 -1 0 -5 0 -1 0 -8 0 -21 0 -64 0 -13 0 0 0 -10 0 -60 0 -11 0 -1 0 -37 0 -54 0 -124 0 -126 0 -2 0 -35 0 -25 0 -35 0 -22 0 -39 0 -46 0 -6 0 -8 0 -5 0 -9 0 -7 0 -4 0 -7 0 -14 0 -13 0 -56 0 -1 0 -9 0 -27 0 -66 0 0 0 -54 0 -61 0 -7 0 -1 0 -58 0 -7 0 0 0 -37 0 -49 0 -139 0 -116 0 -250 0 -104 0 -29 0 -18 0 -21 0 0 0 -5 0 -39 0 -2 0 -57 0 -22 0 -32 0 -88 0 -79 0 -10 0 -30 0 -1 0 -6 0 -44 0 -27 0 -5 0 -19 0 -23 0 -41 0 -1 0 -41 0 -40 0 -107 0 -160 0 -104 0 -84 0 -215 0 -181 0 -61 0 -40 0 -81 0 -819 0 -102 0 -32 0 -63 11043 -5942 -14 9 -24 28 -35 46 -20 29 95 -51 -29 47 27 -14 -24 36 -65 104 -9 15 80 -43 19 28 25 39 31 48 37 57 42 66 47 73 51 82 57 88 60 95 65 100 68 106 71 111 75 115 77 119 80 123 77 117 94 0 50 14 16 14 11 18 6 21 0 26 -4 28 -9 32 -14 35 -11 24 13 20 31 47 3283 -1768 -21 20 -11 28 -1 39 5 49 113 -61 20 -8 28 -8 37 -7 39 -8 29 -4 21 1 16 6 11 12 8 20 7 30 8 39 173 936 28 0 25 9 18 20 12 33 11 46 11 63 130 692 3670 -1975 -20 22 -14 35 -12 52 -10 53 123 -66 16 -6 22 0 31 4 40 7 37 8 28 7 20 9 12 11 5 15 1 22 -3 29 -7 39 -179 937 26 12 20 18 10 25 1 36 -6 47 -10 63 -118 612 3689 -1985 -20 13 -18 14 -16 15 -15 18 -14 18 -11 20 -10 21 -8 22 -6 23 -1 7 179 -96 27 -9 29 -4 2063 0 29 4 27 9 25 14 21 19 18 22 13 25 8 27 3 30 0 1 0 0 0 1 0 1 0 0 0 1 0 1 0 1 0 1233 0 1 0 1 0 1 0 0 0 1 0 1 0 0 0 1 -3 30 -6 20 103 -56 0 0 -103 56 -2 7 -11 20 865 0 26 2 23 3 22 6 18 7 16 10 11 10 8 12 2 13 0 1340 -2 13 -8 11 -11 11 -16 9 -209 113 120 0 0 0 18 0 18 -2 18 -2 17 -3 16 -5 16 -5 14 -5 14 -7 -909 490 11 0 23 -1 22 -3 21 -6 21 -8 19 -9 -4269 2298 0 767 0 0 0 2 0 3 0 2 0 1 0 0 0 1 -1 0 0 1 0 1 2 24 3 23 3 11 2105 -1133 -38 21 -30 24 -23 26 -14 30 -5 31 0 3 0 28 146 -79 61 -22 80 -18 97 -15 112 -11 123 -7 132 -2 385 0 133 2 124 7 112 12 98 15 81 18 60 21 39 24 13 27 0 2294 -13 26 -39 24 -289 155 8 0 57 -7 53 -8 49 -8 59 -13 53 -17 46 -19 -2207 1188 1358 0 16 2 15 4 92 -49 0 0 -92 49 0 0 13 8 12 9 10 12 7 14 5 15 1 16 0 990 -1 16 -5 14 -7 14 -10 12 -12 9 -13 8 -182 98 15 0 8 2 128 0 18 -1 16 -2 89 -48 0 1 -88 47 17 -4 15 -6 16 -8 -175 94 -1 6 -2 9 -4 9 -5 8 -7 6 -8 6 -187 101 170 0 18 -2 12 -3 13 -4 12 -5 -1595 858 1 1 16 5 16 5 18 2 17 1 2019 0 0 1125 1901 0 1 0 0 0 1 0 1 0 0 0 1 0 1 0 0 0 21 2 20 6 18 9 16 12 13 15 11 18 7 19 3 21 0 2273 -3 21 -7 19 -10 17 -13 15 -16 13 -17 9 -15 8 80 0 12 1 11 3 11 4 9 6 9 7 7 9 6 10 4 11 6 18 84 -45 0 0 -84 45 97 317 1 2 1 3 0 3 1 2 0 3 0 3 0 2 87 -46 0 0 -87 46 0 3 -1 15 -4 13 -7 12 -9 11 -10 9 -11 6 12 0 11 1 11 3 9 5 9 7 7 8 5 10 3 10 1 12 0 292 -1 12 -3 10 -5 10 -7 8 -9 7 -9 5 -184 99 162 0 15 -1 15 -2 15 -4 14 -5 13 -6 -3556 1913 -38 0 -162 0 -62 0 -165 0 -351 0 -42 0 0 0 -1 0 -145 0 -12 0 -84 0 0 0 -38 0 -38 0 0 0 -2 0 -60 0 -585 0 -1 0 -83 0 -50 0 -2 0 -6 0 0 0 -26 0 -36 0 -80 0 -18 0 -36 0 -2 0 -52 0 -89 0 -3 0 -1 0 -3 0 -4 0 -8 0 -212 0 -22 0 -334 0 -139 0 -1 0 -61 0 -24 0 -24 0 -386 0 -117 0 -159 0 -173 0 -46 0 0 0 -186 0 -188 0 -1 0 -123 0 -86 0 -32 0 -105 0 0 0 -50 0 -18 0 -19 0 -15 0 -74 0 -3 0 0 0 -92 0 -1 0 -14 0 -96 0 -11 0 -13 0 -33 0 -50 0 -103 0 -14 0 -32 0 -43 0 -39 0 -116 0 0 0 -5 0 -1 0 -89 0 -125 0 -29 0 -42 0 -16 0 -43 0 -3 0 -3 0 -1 0 -16 0 -14 0 -22 0 -1 0 -91 0 -4 0 -60 0 -8 0 -61 0 -37 0 -162 0 -54 0 -8 0 -90 0 -1 0 -75 0 -103 0 -247 0 -42 0 0 0 0 0 -146 0 -12 0 -84 0 0 0 -38 0 -38 0 -1 0 -1 0 -60 0 -585 0 0 0 -86 0 -51 0 -2 0 -5 0 0 0 -24 0 -36 0 -30 0 -52 0 -16 0 -36 0 -2 0 -55 0 -27 0z"/>
   <g>
    <path fill="white" d="M12229 13400c0,-99 23,-180 51,-180l1628 0c29,0 51,81 51,180l0 4008c0,104 -23,180 -51,180l-1627 0c-29,0 -51,-76 -51,-180l0 -4008 -1 0z"/>
    <path fill="#3D4752" fill-rule="nonzero" d="M12135 13400c0,-58 7,-112 18,-152 22,-76 66,-122 127,-122l1628 0c62,0 106,46 127,121 12,41 19,95 19,153l0 4008c0,60 -7,113 -19,153 -21,76 -66,122 -127,122l-1627 0c-62,0 -106,-45 -127,-121 -12,-40 -19,-94 -19,-154l0 -3914 0 0 0 -94zm196 -86c-3,17 -6,37 -7,59l0 4035c0,34 3,63 7,86l1527 0c4,-23 7,-52 7,-86l0 -4008c0,-33 -3,-62 -7,-86l-1527 0z"/>
    <path fill="white" d="M10421 16975c0,0 0,0 0,0 0,-10 8,-17 17,-17 1,0 1,0 1,0l550 0c0,0 0,0 1,0 9,0 17,7 17,17 0,0 0,0 0,0l0 377c0,0 0,0 0,0 0,10 -8,17 -17,17 -1,0 -1,0 -1,0l-551 0c0,0 0,0 0,0 -10,0 -17,-7 -17,-17 0,0 0,0 0,0l0 -377 0 0z"/>
    <path fill="#3D4752" fill-rule="nonzero" d="M10379 16880c17,-10 38,-17 59,-17l1 0 0 1c138,0 430,17 551,-1 30,0 58,13 78,33l0 0c21,20 33,48 33,79l0 377c0,31 -13,59 -33,79 -20,20 -48,33 -78,33l-552 0c-31,0 -59,-13 -79,-33 -20,-20 -33,-48 -33,-79l0 -472 53 0zm533 172l-397 0 0 223 397 0 0 -223z"/>
    <path fill="#3D4752" d="M8352 14067c3,-71 61,-126 132,-126 2,0 4,0 5,0l4386 0c2,0 4,0 6,0 71,0 129,55 132,126l0 2769c-2,70 -60,126 -130,126 -2,0 -5,0 -8,0l-4386 0c-2,0 -5,0 -7,0 -71,0 -128,-56 -130,-126l0 -2769 0 0z"/>
    <path fill="#3D4752" fill-rule="nonzero" d="M8257 14062c3,-60 30,-114 71,-153 40,-39 95,-63 156,-63l0 0 5 1 0 -1 4386 0 0 0 6 0c61,0 116,24 156,63 41,39 68,93 70,153l1 5 0 2769 -1 3c-2,61 -27,115 -68,154 -40,40 -95,64 -156,64l-1 -1c-2,0 -5,0 -7,0l0 0 -4386 0 0 0 -6 0 -1 1c-61,0 -116,-24 -156,-64 -41,-39 -67,-93 -69,-154l0 -3 0 -2769 0 -5zm200 -17c-6,6 -10,14 -11,22l0 2769 0 0c1,9 5,16 11,22 6,6 15,10 25,10l0 0 4 0 3 0 4386 0 4 0 4 0 0 0c10,0 19,-4 25,-10 6,-6 10,-13 11,-22l0 0 0 -2769c-1,-8 -5,-16 -11,-22 -7,-6 -16,-10 -27,-10 -4,0 2,0 -1,0l-5 0 -4386 0 -3 0 -2 0 0 0c-11,0 -20,4 -27,10z"/>
    <path fill="white" d="M8478 18030l4644 -14c56,0 101,-45 101,-101 0,-15 -4,-30 -10,-43l-252 -527c-17,-35 -52,-57 -91,-57 0,0 0,0 0,0l-4235 6c-44,0 -84,30 -96,73l-157 534c-2,9 -3,18 -3,27 0,56 44,101 99,102l0 0z"/>
    <path fill="#3D4752" fill-rule="nonzero" d="M8480 17936l4642 -14c1,0 3,-1 4,-2 2,-1 2,-3 2,-5 0,-1 0,-1 0,-1l0 -2 0 0 -252 -526 0 0c0,-1 -1,-2 -3,-3 0,0 -2,0 -3,0l0 -1 -4234 6c-2,0 -3,0 -4,1l0 0c-2,2 -3,3 -3,4l-156 533 0 0c0,1 0,0 0,1l0 0c0,1 0,0 0,1 0,2 1,4 2,5 1,1 2,2 3,2l0 0 0 0 2 1zm4642 174l-4644 14 0 0 0 -92 -1 92c-54,-1 -102,-24 -136,-59 -35,-35 -57,-84 -57,-137 0,-8 1,-17 2,-27 2,-10 3,-18 6,-26l0 -1 156 -533c12,-42 37,-77 70,-102l0 0c33,-25 74,-39 117,-39l4235 -6 0 0c37,0 73,11 104,30 30,19 56,47 72,81l0 0 252 526 0 0c6,13 11,27 14,41 3,15 5,29 5,43 0,54 -22,102 -57,138 -35,35 -83,57 -137,57l-1 0z"/>
    <path fill="white" d="M8686 14387c7,-54 53,-94 108,-94 3,0 6,1 10,1l3735 0c3,0 5,0 8,0 54,0 100,39 108,93l0 2148c-6,55 -52,97 -107,97 -4,0 -7,-1 -11,-1l-3733 0c-4,0 -8,1 -12,1 -55,0 -101,-42 -106,-97l0 -2148z"/>
    <rect fill="#3D4752" x="8260" y="6817" width="646" height="527"/>
    <rect fill="#3D4752" x="9041" y="6817" width="1326" height="507"/>
    <rect fill="#3D4752" x="10520" y="6817" width="1320" height="507"/>
    <rect fill="#3D4752" x="12004" y="6817" width="1326" height="507"/>
    <rect fill="#3D4752" x="13438" y="6817" width="459" height="527"/>
    <rect fill="#3D4752" x="8248" y="7445" width="1326" height="501"/>
    <rect fill="#3D4752" x="9687" y="7445" width="1326" height="501"/>
    <rect fill="#3D4752" x="11143" y="7445" width="1326" height="501"/>
    <rect fill="#3D4752" x="12588" y="7445" width="1326" height="501"/>
    <rect fill="#3D4752" x="8260" y="8049" width="646" height="527"/>
    <rect fill="#3D4752" x="9041" y="8049" width="1326" height="507"/>
    <rect fill="#3D4752" x="10520" y="8049" width="1326" height="507"/>
    <rect fill="#3D4752" x="12010" y="8049" width="1320" height="507"/>
    <rect fill="#3D4752" x="13443" y="8049" width="459" height="527"/>
    <rect fill="#3D4752" x="8248" y="8658" width="1326" height="504"/>
    <rect fill="#3D4752" x="9687" y="8658" width="1326" height="504"/>
    <rect fill="#3D4752" x="11143" y="8658" width="1326" height="504"/>
    <rect fill="#3D4752" x="12588" y="8658" width="1326" height="504"/>
    <rect fill="#3D4752" x="8260" y="9219" width="646" height="527"/>
    <rect fill="#3D4752" x="9041" y="9219" width="1326" height="507"/>
    <rect fill="#3D4752" x="10520" y="9219" width="1326" height="507"/>
    <rect fill="#3D4752" x="12010" y="9219" width="1320" height="507"/>
    <rect fill="#3D4752" x="13443" y="9219" width="459" height="527"/>
    <rect fill="#3D4752" x="8248" y="9828" width="1326" height="504"/>
    <rect fill="#3D4752" x="9687" y="9828" width="1326" height="504"/>
    <rect fill="#3D4752" x="11143" y="9828" width="1326" height="504"/>
    <rect fill="#3D4752" x="12588" y="9828" width="1326" height="504"/>
    <path fill="#3D4752" fill-rule="nonzero" d="M13858 9235l2727 0 0 190 -2727 0 0 -190z"/>
    <path fill="#3D4752" fill-rule="nonzero" d="M17654 7639l0 -829 -5 0 0 -1031 197 0 0 834 6 0 0 1026 -198 0z"/>
    <path fill="#3D4752" d="M17784 7639l-29 -9 -14 3 -14 3 0 -6 57 0 0 9z"/>
    <path fill="white" d="M23773 11548l-88 88 91 85 -3 -173z"/>
    <path fill="white" d="M23773 12114l-88 85 88 88 0 -173z"/>
    <rect fill="white" x="23767" y="12165" width="130" height="68"/>
    <path fill="#3D4752" fill-rule="nonzero" d="M18334 5021l3315 0c17,0 33,-1 46,-3l0 -858c0,-59 41,-100 108,-120 34,-11 79,-17 127,-17l1173 0 0 188 -1173 0c-18,0 -33,1 -47,3l0 858c0,58 -41,100 -107,121 -35,10 -79,16 -127,16l-3315 0 0 -188z"/>
    <rect fill="#3D4752" x="20234" y="5642" width="6" height="57"/>
    <path fill="#3D4752" fill-rule="nonzero" d="M20056 10860l0 865c0,13 5,24 13,33l1 0c8,8 19,13 32,13l1 0 0 0 2937 0 0 188 -2937 0 0 1 -1 0c-65,0 -123,-26 -166,-69l0 0c-42,-43 -69,-101 -69,-166l0 -865 189 0z"/>
    <path fill="#3D4752" d="M20013 11030l-17 0 17 -6 0 6 0 0zm-29 0l-28 0 0 -9 28 9z"/>
    <path fill="#3D4752" fill-rule="nonzero" d="M11175 5009l0 1877 -188 0 0 -1877 188 0z"/>
    <path fill="black" fill-opacity="0.000000" d="M11045 1957l-2048 3336 4249 26 -2201 -3362z"/>
    <path fill="white" d="M10932 5293c-1045,-6 -1904,-12 -1904,-17 0,-6 2008,-3289 2015,-3286 6,2 1430,2165 2121,3227l63 93 -199 0c-105,-2 -1054,-8 -2096,-17z"/>
    <path fill="#3D4752" fill-rule="nonzero" d="M10931 5387c-523,-3 -999,-6 -1344,-9 -403,-3 -653,-32 -653,-102l5 -30 2 -5c5,-13 510,-841 1013,-1663 516,-842 1046,-1682 1089,-1682l34 7c20,7 476,686 992,1470 415,632 872,1329 1173,1792l0 -1 162 241 -376 0 -2 -1c-55,-1 -335,-3 -737,-6 -376,-3 -858,-7 -1358,-11zm-1342 -197c346,3 821,6 1343,9l0 0c505,4 984,8 1358,11 400,3 680,5 738,6l0 0 23 0c-315,-484 -750,-1148 -1139,-1739 -443,-674 -803,-1252 -887,-1375 -88,120 -464,846 -910,1574 -453,740 -905,1480 -986,1613 32,21 203,-101 460,-99z"/>
    <path fill="black" fill-opacity="0.000000" d="M10099 3540l1949 -14 -909 1742 -1040 -1728z"/>
    <path fill="#3D4752" d="M10640 4402l-495 -826 926 -8c507,-5 928,-5 930,-5 3,0 -857,1663 -861,1667 -4,3 -225,-370 -500,-828z"/>
    <path fill="#3D4752" fill-rule="nonzero" d="M10560 4450l-580 -967 1090 -9c253,-3 486,-4 655,-4l276 -1 50 14c50,32 42,107 -11,212l-119 231c-249,483 -698,1345 -715,1370l1 1c-45,44 -90,44 -134,-1 -17,-17 -123,-193 -276,-450 -71,-118 -151,-253 -237,-396zm-249 -782l410 686c86,143 167,278 237,396l177 295c128,-249 428,-835 618,-1205l94 -183 -122 1c-168,0 -399,2 -653,4l-761 6z"/>
    <path fill="white" d="M21381 12478l3114 0c26,5 44,28 44,54 0,3 0,6 0,9l0 0c0,3 0,6 0,8 0,27 -18,50 -44,55l-3114 0c-26,-5 -45,-28 -45,-55 0,-2 1,-5 1,-8l0 0c0,-3 -1,-6 -1,-9 0,-26 19,-49 45,-54l0 0z"/>
    <path fill="#3D4752" fill-rule="nonzero" d="M21476 12383l3019 0 18 2c34,7 65,26 86,52 22,27 35,60 35,95 0,3 0,5 -1,9 1,3 1,6 1,8 0,36 -13,69 -35,95 -21,27 -52,45 -86,52l-18 2 -3114 0 -18 -2c-35,-7 -65,-25 -87,-52 -21,-26 -34,-59 -34,-95l0 -8c0,-3 0,-6 0,-9 0,-35 13,-68 34,-95 22,-26 52,-45 87,-52l113 -22 0 20zm-81 164l4 -4 -5 1 1 3zm10 -8l8 -7 9 0 0 -2 -7 1 0 -1 7 0 -1 -2 -4 0 -2 2 -20 2 0 0 18 0 2 -1 -20 1 0 3 4 3 6 1zm-10 -4l-1 3 5 0 -4 -3zm3 14l15 0 1 2 8 0 0 -2 -9 0 -8 -6 -6 0 -4 4 0 2 3 0zm-3 1l23 4 -3 -3 -20 -1 0 0zm23 4l3 0 1 -2 -7 -1 3 3z"/>
    <path fill="#3D4752" fill-rule="nonzero" d="M18334 5021l3317 0 9 0c64,7 121,37 162,82 41,46 65,105 65,169l0 13 0 3266 -1 6c0,4 0,0 0,2 0,5 0,-5 0,3 0,17 6,32 17,44 9,10 22,18 36,20l2486 0 0 189 -2491 0 -10 -1c-65,-7 -121,-38 -162,-83 -40,-45 -65,-105 -65,-169 0,-4 1,0 1,-9l0 -2 0 0 0 -3266 0 -7c1,-4 0,1 1,-3l0 0c0,-3 -1,2 -1,-3 0,-16 -6,-31 -16,-43 -9,-10 -21,-17 -35,-19l-3313 0 0 -189z"/>
    <rect fill="#3D4752" x="20234" y="5642" width="6" height="57"/>
    <path fill="#3D4752" d="M17464 11030l-18 0 18 -6 0 6zm-29 0l-28 0 0 -9 28 9z"/>
    <path fill="#3D4752" d="M19735 3102l0 0c189,39 189,39 156,229l-182 944c-34,196 -34,196 -223,159 -190,-38 -184,-40 -150,-230l175 -952c40,-188 40,-188 224,-150z"/>
    <path fill="#3D4752" fill-rule="nonzero" d="M19754 3009c279,59 279,59 230,338l-182 944c-50,291 -50,291 -334,235 -276,-54 -275,-59 -227,-326 57,-322 124,-645 178,-967 59,-279 59,-279 335,-224l0 0zm44 305c17,-99 17,-99 -82,-120l0 0c-92,-19 -92,-19 -113,77l-177 962c-16,88 -16,89 78,108 95,18 95,18 112,-82l182 -945z"/>
    <path fill="#3D4752" d="M19936 2053l0 0c113,23 113,23 93,140l-189 989c-20,116 -20,116 -133,96 -113,-20 -122,-25 -96,-142l183 -991c20,-114 20,-114 142,-92z"/>
    <path fill="#3D4752" fill-rule="nonzero" d="M19954 1961c204,41 204,41 168,247l-189 989c-36,210 -36,210 -242,174 -82,-15 -127,-25 -161,-73 -34,-49 -30,-96 -12,-182l1 0 183 -987 -1 0c37,-208 37,-208 252,-168l1 0zm-18 216c5,-26 5,-26 -18,-31l0 0c-27,-5 -27,-5 -31,16l0 0 -184 991 0 3c-7,31 -28,21 -19,33 8,11 7,-10 39,-4 21,4 21,4 24,-19l189 -989z"/>
    <rect fill="white" x="18729" y="4277" width="1334" height="1305"/>
    <path fill="#3D4752" d="M15739 3082l0 0c189,-37 189,-37 221,153l178 949c41,193 41,193 -147,227 -189,35 -189,37 -224,-156l-178 -949c-35,-187 -35,-187 150,-224z"/>
    <path fill="#3D4752" fill-rule="nonzero" d="M15721 2990c283,-56 283,-56 332,229l177 945c62,288 62,288 -222,340l-6 1c-276,51 -276,51 -327,-232l0 0 -179 -950c-51,-278 -51,-278 224,-333l1 0zm146 261c-16,-95 -16,-95 -110,-76l0 -1c-93,19 -93,19 -75,115l178 949 0 1c17,98 18,98 108,81l6 -1c93,-17 93,-17 72,-116 -53,-314 -117,-639 -179,-952z"/>
    <path fill="#3D4752" d="M15543 2032l0 0c116,-23 116,-23 139,96l183 988c22,116 22,116 -93,142 -116,25 -114,20 -134,-97l-189 -988c-19,-119 -19,-119 94,-141z"/>
    <path fill="#3D4752" fill-rule="nonzero" d="M15525 1939c210,-41 210,-41 249,172l183 987 0 0c41,207 41,207 -165,252 -173,37 -203,37 -236,-113 -3,-14 -6,-31 -9,-50l-2 -10 -188 -986 -1 -3c-34,-209 -34,-209 169,-249l0 0zm64 206c-5,-25 -5,-26 -28,-21l1 0c-24,5 -25,5 -20,31 63,332 133,668 191,1000 3,16 5,30 7,42 6,26 -3,-28 12,-32 25,-5 25,-5 20,-31l0 -1 -183 -988z"/>
    <path fill="white" d="M15365 4152l4758 0c61,0 111,50 111,111l0 1384c0,61 -50,111 -111,111l-4758 0c-61,0 -111,-50 -111,-111l0 -1384c0,-61 50,-111 111,-111z"/>
    <path fill="#3D4752" fill-rule="nonzero" d="M15365 4058l4758 0 0 0c57,0 108,23 145,60l0 0c37,37 60,89 60,145l0 0 0 1384c0,57 -23,108 -60,145l0 0c-37,37 -88,60 -145,60l-4758 0c-56,0 -108,-23 -145,-60l0 0c-37,-37 -60,-88 -60,-145l0 0 0 -1384c0,-57 23,-108 60,-145l0 0c37,-37 88,-60 145,-60zm4758 188l0 1 -4758 0c-5,0 -9,1 -12,4l0 0c-3,3 -5,7 -5,12l0 1384 1 0c0,5 2,9 4,12l0 0c3,3 7,4 12,4l4758 0c4,0 9,-1 11,-4l1 0c3,-3 5,-7 5,-12l0 -1384 -1 0c0,-5 -1,-9 -4,-12l0 0c-4,-3 -8,-5 -12,-5z"/>
    <path fill="#3D4752" d="M18945 4369l901 0c80,0 145,65 145,146l0 874c0,80 -65,145 -145,145l-901 0c-81,0 -146,-65 -146,-145l0 -874c0,-81 65,-146 146,-146z"/>
    <path fill="white" d="M21245 11237l3386 0c44,0 79,36 79,80l0 990c0,43 -35,79 -79,79l-3386 0c-44,0 -80,-36 -80,-79l0 -990c0,-44 36,-80 80,-80l0 0z"/>
    <path fill="#3D4752" fill-rule="nonzero" d="M21339 11143l3292 0c48,0 92,19 123,51l0 0c31,31 50,75 50,122l1 0 0 991c0,48 -20,91 -51,123l0 -1c-32,32 -75,51 -123,51l-3386 0c-48,0 -91,-19 -123,-50l0 -1c-32,-32 -51,-75 -51,-122l0 -990c0,-48 19,-92 51,-123 32,-32 75,-51 123,-51l94 0zm3277 189l-3356 0 0 960 3356 0 0 -960z"/>
    <path fill="#3D4752" d="M23822 11484l504 0c0,0 0,0 0,0 45,0 81,36 81,81 0,0 0,1 0,1l0 491c0,1 0,1 0,1 0,45 -36,81 -81,81 0,0 0,0 0,0l-504 0c0,0 0,0 0,0 -45,0 -81,-36 -81,-81 0,0 0,0 0,-1l0 -491c0,0 0,-1 0,-1 0,-45 36,-81 81,-81 0,0 0,0 0,0l0 0z"/>
    <path fill="white" d="M23578 2020l2063 0c80,3 144,69 144,150 0,2 0,4 0,6l0 1233c0,2 0,4 0,6 0,81 -64,147 -144,150l-2063 0c-81,-3 -144,-69 -144,-150 0,-2 0,-4 0,-6l0 -1233c0,-2 0,-4 0,-6 0,-81 63,-147 144,-150l0 0z"/>
    <path fill="#3D4752" fill-rule="nonzero" d="M23578 1925l2063 0 3 0c66,3 125,32 167,75 42,45 68,104 68,170l0 1 0 5 0 0 0 1233 0 0 0 5 0 1c0,65 -26,125 -68,170 -42,43 -101,72 -167,75l-3 0 -2063 0 -4 0c-65,-3 -124,-32 -166,-75 -43,-45 -69,-104 -69,-170l1 -1 0 -5 0 0 0 -1233 0 0 0 -5 -1 -1c0,-66 26,-125 69,-170 42,-43 101,-72 166,-75l4 0zm2063 189l0 0 -2063 0 0 0c-13,1 -26,8 -35,17 -9,10 -15,24 -15,39l0 0 0 3 0 3 0 1233 0 3 0 3 0 0c0,15 6,29 15,39 9,9 22,16 35,17l0 0 2063 0 0 0c13,-1 25,-8 34,-17 10,-10 16,-24 16,-39l0 0 0 -3 0 -3 0 -1233 0 -3 0 -3 0 0c0,-15 -6,-29 -16,-39 -9,-9 -21,-16 -34,-17z"/>
    <path fill="white" d="M22521 3555c0,-32 57,-63 126,-63l3981 0c70,0 126,27 126,63l0 1340c0,34 -56,63 -126,63l-3982 0c-69,0 -125,-26 -125,-63l0 -1340 0 0z"/>
    <path fill="#3D4752" fill-rule="nonzero" d="M22469 3461c13,-13 29,-25 48,-34 35,-18 81,-29 130,-29l3981 0c49,0 96,11 132,29 55,27 89,72 89,128l0 1340c0,56 -35,101 -90,128 -35,18 -82,29 -131,29l0 0 -3982 0 0 0c-49,0 -96,-10 -132,-28 -54,-27 -88,-72 -88,-129l0 -1434 43 0zm178 126c-12,0 -23,1 -31,3l0 60 -1 0 0 1211c9,2 19,2 31,2l0 1 3982 0 0 -1c12,0 23,-1 32,-3l0 -1270c-9,-2 -20,-3 -32,-3l-3981 0z"/>
    <path fill="#46515C" d="M25290 4065c-11,90 -88,158 -179,158 -6,0 -12,0 -17,0 -105,0 -196,-74 -196,-159 0,-85 94,-156 196,-156 102,0 196,72 196,157z"/>
    <path fill="#46515C" d="M25909 4065c-19,92 -100,159 -195,159 -95,0 -176,-67 -195,-159 0,-85 85,-156 195,-156 111,0 195,71 195,156z"/>
    <path fill="#46515C" d="M26513 4065c0,85 -90,158 -196,158 -4,1 -9,1 -13,1 -92,0 -169,-69 -179,-159 0,-85 85,-156 196,-156 110,0 192,71 192,156z"/>
    <path fill="white" d="M23413 4597l2448 0c71,0 128,58 128,128l0 565c0,71 -57,129 -128,129l-2448 0c-71,0 -129,-58 -129,-129l0 -565c0,-70 58,-128 129,-128z"/>
    <path fill="#3D4752" fill-rule="nonzero" d="M23413 4503l2448 0c62,0 117,25 158,65l-1 0c41,41 66,96 66,158l0 564c0,62 -25,117 -65,158 -41,40 -96,65 -158,65l-2448 0c-62,0 -117,-25 -158,-65l0 0c-40,-41 -65,-96 -65,-158l0 -565c0,-61 25,-116 65,-157 41,-40 96,-65 158,-65zm2448 189l-2448 0c-10,0 -19,3 -25,10 -6,5 -10,14 -10,23l0 565c0,10 4,18 10,24l0 1c6,6 15,9 25,9l2448 0c9,0 18,-4 24,-10 6,-6 10,-14 10,-24l0 -564c0,-10 -4,-19 -9,-24l-1 0c-6,-7 -15,-10 -24,-10z"/>
    <path fill="#3D4752" d="M16896 17631l4131 0c31,0 56,25 56,56l0 292c0,31 -25,56 -56,56l-4131 0c-30,0 -56,-25 -56,-56l0 -292c0,-31 26,-56 56,-56z"/>
    <path fill="#3D4752" fill-rule="nonzero" d="M16896 17536l4131 0c42,0 79,17 106,44l1 0c27,27 43,65 43,106l1 0 0 293c0,42 -17,79 -44,107 -27,27 -65,44 -107,44l-4131 0c-41,0 -79,-17 -106,-44 -27,-28 -44,-65 -44,-107l0 -292c0,-42 17,-79 44,-106l0 -1c27,-27 65,-44 106,-44zm4093 189l-4054 0 0 216 4054 0 0 -216z"/>
    <path fill="white" d="M18099 17158l2784 0c32,0 60,21 69,51l103 335c2,7 3,14 3,21 0,40 -32,72 -71,72 0,0 0,0 0,0l-2784 0c-32,0 -60,-21 -69,-51l-103 -334c-3,-7 -4,-15 -4,-22 0,-40 32,-72 72,-72 0,0 0,0 0,0l0 0z"/>
    <path fill="#3D4752" fill-rule="nonzero" d="M18099 17063l2784 0c37,0 71,13 99,33 28,21 50,51 60,86l0 0 103 334 0 0c3,8 5,16 6,24 1,9 2,17 2,25 0,46 -19,87 -49,117l0 1c-30,30 -71,48 -117,48l0 0 0 0 -2784 0c-37,0 -72,-12 -99,-33 -28,-21 -50,-50 -60,-85l0 0 -103 -333 0 0c-3,-8 -5,-16 -6,-24 -2,-10 -2,-19 -2,-26 0,-46 18,-88 49,-118 30,-30 71,-49 117,-49l0 0zm2768 189l-2738 0 90 291 2737 0 -89 -291zm98 319l0 0 0 0 0 0z"/>
    <path fill="white" d="M19793 17158l-2752 0c-29,1 -55,20 -63,47l-107 340c-2,6 -3,13 -3,20 0,37 29,67 66,68l2755 0c29,-1 54,-20 63,-48l105 -340c2,-6 3,-13 3,-19 0,-37 -30,-67 -67,-68l0 0z"/>
    <path fill="#3D4752" fill-rule="nonzero" d="M19756 17252l-2694 0 -91 287 2696 0 89 -287zm-2715 -189l2752 0 0 93 2 -92c44,1 84,19 112,48 29,30 47,70 47,114 0,7 -1,15 -2,23 -1,7 -3,15 -5,23l-105 341c-11,33 -31,61 -57,81 -27,20 -59,32 -94,33l-2 0 -2755 0 -3 0c-44,-1 -83,-20 -112,-49 -28,-29 -46,-69 -46,-113 0,-8 1,-16 2,-24 1,-8 3,-16 6,-24l107 -340 0 0c11,-33 31,-61 57,-81 26,-20 59,-31 93,-32l3 -1z"/>
    <path fill="#3D4752" d="M17043 14783c4,-57 51,-102 109,-102 1,0 3,0 5,0l3611 0c1,0 3,0 5,0 57,0 105,45 108,102l0 2273c-2,57 -49,102 -106,102 -3,0 -5,0 -7,0l-3612 0c-2,0 -4,0 -7,0 -57,0 -104,-45 -107,-102l0 -2273 1 0z"/>
    <path fill="#3D4752" fill-rule="nonzero" d="M16976 14688c10,-17 22,-33 37,-46 36,-35 85,-56 139,-56l1 1 4 0 0 0 3611 0 0 0 4 0 1 -1c53,0 102,21 139,56 36,34 60,82 64,135l0 6 0 2273 0 4c-3,54 -26,102 -63,137 -36,34 -85,55 -138,55l-2 0 -5 0 0 0 -3612 0 0 0 -5 0 -2 0c-53,0 -102,-21 -139,-55 -36,-35 -59,-83 -62,-137l0 -4 0 -2368 28 0zm166 91c-3,2 -5,6 -5,10l0 4 0 2261c0,3 2,5 3,6 3,2 6,4 9,4l0 0 7 -1 3612 0 7 1 0 0c3,0 6,-2 9,-4 1,-1 2,-3 3,-6l0 -2268c-1,-3 -2,-5 -4,-7 -3,-2 -6,-4 -10,-4l0 0 -3 0 -2 0 -3611 0 -3 0 -2 0 0 0c-4,0 -8,2 -10,4z"/>
    <path fill="white" d="M17526 15033l2866 0c83,0 150,126 150,279l0 1222c0,154 -67,278 -150,278l-2866 0c-83,0 -150,-126 -150,-278l0 -1222c-1,-154 67,-279 150,-279z"/>
    <rect fill="white" x="19644" y="17252" width="567" height="288"/>
    <path fill="#3D4752" d="M23070 17631l4131 0c31,0 56,25 56,56l0 292c0,31 -25,56 -56,56l-4131 0c-31,0 -56,-25 -56,-56l0 -292c0,-31 25,-56 56,-56z"/>
    <path fill="#3D4752" fill-rule="nonzero" d="M23070 17536l4131 0c41,0 79,17 106,44l1 0c26,27 43,65 43,106l1 0 0 293c0,42 -17,79 -44,107 -28,27 -65,44 -107,44l-4131 0c-41,0 -79,-17 -106,-44l0 -1c-28,-27 -44,-65 -44,-106l0 -292c0,-42 17,-80 44,-107 27,-27 65,-44 106,-44zm4093 189l-4055 0 0 216 4055 0 0 -216z"/>
    <path fill="white" d="M24273 17158l2783 0c32,0 60,21 69,51l103 335c2,7 3,14 3,21 0,40 -32,72 -71,72 0,0 0,0 0,0l-2784 0c-32,0 -60,-21 -69,-51l-103 -334c-3,-7 -4,-15 -4,-22 0,-40 32,-72 72,-72 0,0 1,0 1,0l0 0z"/>
    <path fill="#3D4752" fill-rule="nonzero" d="M24273 17063l2783 0c37,0 71,13 99,33 28,21 50,51 60,86l0 0 103 334 0 0c3,8 5,16 6,24 1,9 2,17 2,25 0,46 -19,87 -49,118 -30,30 -72,48 -117,48l0 0 0 0 -2784 0c-37,0 -72,-12 -99,-33 -28,-21 -50,-50 -60,-85l0 0 -103 -333 0 0c-3,-8 -5,-16 -6,-24 -2,-10 -2,-19 -2,-26 0,-46 18,-87 48,-118l0 0c30,-30 72,-49 118,-49l1 0zm2767 189l-2738 0 90 291 2737 0 -89 -291zm98 319l0 0 0 1 0 -1z"/>
    <path fill="white" d="M25967 17158l-2753 0c-29,1 -55,20 -63,47l-107 340c-2,6 -3,13 -3,20 0,37 29,67 66,68l2755 0c29,-1 54,-20 63,-48l105 -340c2,-6 3,-13 3,-19 0,-37 -29,-67 -66,-68l0 0z"/>
    <path fill="#3D4752" fill-rule="nonzero" d="M25929 17252l-2694 0 -91 287 2697 0 88 -287zm-2715 -189l2753 0 3 1c44,1 83,20 111,49 28,29 46,69 46,113 0,7 -1,15 -2,23l0 0c-1,8 -3,16 -5,23l0 1 -105 340c-11,33 -31,61 -57,81 -27,20 -59,32 -94,33l-2 0 -2755 0 -3 0c-44,-1 -83,-20 -112,-49 -28,-29 -46,-69 -46,-113 0,-8 1,-16 2,-24 1,-8 3,-16 6,-24l107 -340 0 -1c11,-32 31,-60 57,-80 27,-20 59,-31 93,-32l3 -1zm2725 156l0 -1 0 0 0 1z"/>
    <path fill="#3D4752" d="M23217 14783c3,-57 51,-102 108,-102 2,0 4,0 6,0l3612 0c2,0 4,0 5,0 58,0 105,45 109,102l0 2273c-3,57 -50,102 -107,102 -2,0 -5,0 -7,0l-3613 0c-2,0 -5,0 -7,0 -57,0 -104,-45 -107,-102l0 -2273 1 0z"/>
    <path fill="#3D4752" fill-rule="nonzero" d="M23149 14688c10,-17 23,-33 37,-46 37,-35 86,-56 139,-56l2 1 4 0 0 0 3612 0 0 0 5 -1c54,0 103,21 139,56 37,34 61,82 64,135l0 6 0 2273 0 4c-2,54 -26,102 -62,137 -36,34 -85,55 -139,55l-1 0 -6 0 0 0 -3613 0 0 0 -5 0 -2 0c-54,0 -103,-21 -139,-55 -36,-35 -60,-83 -62,-137l0 -4 0 -2368 27 0zm166 91c-2,2 -4,6 -4,9l-1 5 0 2261c1,3 2,5 4,6 2,2 5,4 9,4l0 0 3 0 4 -1 3613 0 4 1 3 0 0 0c4,0 7,-2 9,-4 2,-1 3,-3 4,-6l0 -2268c-1,-3 -3,-5 -5,-7 -2,-2 -6,-4 -10,-4 -4,0 3,0 -1,0l-4 0 -3612 0 -3 0 -3 0 0 0c-4,0 -7,2 -10,4z"/>
    <path fill="white" d="M23700 15033l2865 0c84,0 151,126 151,279l0 1222c0,154 -67,278 -151,278l-2865 0c-83,0 -150,-126 -150,-278l0 -1222c0,-154 67,-279 150,-279z"/>
    <rect fill="white" x="25817" y="17252" width="567" height="288"/>
    <path fill="#3D4752" d="M24451 7496l385 0c365,0 660,53 660,126l0 2294c0,71 -295,126 -660,126l-385 0c-362,0 -657,-57 -657,-126l0 -2294c2,-75 295,-126 657,-126z"/>
    <path fill="#3D4752" fill-rule="nonzero" d="M24451 7401l385 0c190,0 362,15 488,39 165,31 266,93 266,182l0 2294c0,88 -102,150 -268,182 -125,24 -297,38 -486,38l-385 0c-186,0 -357,-14 -482,-38 -166,-32 -269,-95 -269,-182l0 -2294 0 -3c2,-88 103,-149 264,-180 125,-24 298,-38 487,-38zm385 189l-385 0c-179,0 -338,13 -451,35 -67,12 -107,-13 -112,-3l0 2294c0,17 45,-17 116,-4 114,22 271,36 447,36l385 0c179,0 338,-14 452,-35 70,-14 114,20 114,3l0 -2294c0,-17 -43,16 -113,3 -113,-22 -273,-35 -453,-35z"/>
    <path fill="white" d="M24221 7841l846 0c80,0 144,64 144,143l0 1360c0,80 -64,144 -144,144l-846 0c-80,0 -144,-64 -144,-144l0 -1360c0,-79 64,-143 144,-143z"/>
    <path fill="#3D4752" fill-rule="nonzero" d="M17530 11030l0 675c0,68 -28,129 -72,174 -45,44 -106,72 -174,72l0 0 -6461 0c-16,0 -30,6 -41,17l0 0c-10,10 -16,24 -16,40l0 1875 -189 0 0 -1875c0,-67 27,-129 72,-174l0 0c44,-44 106,-72 174,-72l6461 0 0 1c15,0 29,-7 40,-18 10,-10 17,-24 17,-40l0 -675 189 0z"/>
    <path fill="white" d="M16710 8752l4000 0c68,0 124,56 124,125l0 872c0,69 -56,125 -124,125l-4000 0c-69,0 -125,-56 -125,-125l0 -872c0,-69 56,-125 125,-125z"/>
    <path fill="#3D4752" fill-rule="nonzero" d="M16710 8658l4000 0c60,0 114,24 154,64 40,40 65,94 65,155l0 872c0,60 -25,115 -64,155l-1 0c-40,40 -94,64 -154,64l0 0 -4000 0 0 0c-60,0 -115,-24 -155,-64l0 0c-39,-39 -64,-94 -64,-155l0 0 0 -872c0,-60 25,-115 64,-155l0 0c40,-40 95,-64 155,-64zm4000 189l-4000 0c-8,0 -16,3 -21,8l-1 0c-5,6 -8,13 -8,22l0 872 -1 0c0,8 4,16 10,22l0 0c5,5 12,8 21,8l0 1 4000 0 0 -1c8,0 16,-3 21,-8l0 0c6,-6 9,-13 9,-22l0 -872c0,-9 -3,-16 -9,-22 -5,-5 -13,-8 -21,-8z"/>
    <rect fill="#3D4752" x="17647" y="7970" width="213" height="680"/>
    <path fill="#3D4752" fill-rule="nonzero" d="M17742 8556l24 0 0 -491 -24 0 0 491zm118 189l-307 0 0 -869 401 0 0 869 -94 0z"/>
    <path fill="white" d="M17931 7800c0,98 -80,177 -177,177 -98,0 -177,-79 -177,-177 0,-97 79,-176 177,-176 97,0 177,79 177,176l0 0z"/>
    <path fill="#3D4752" fill-rule="nonzero" d="M18025 7800c0,75 -30,143 -79,192 -50,49 -118,80 -192,80 -75,0 -143,-31 -192,-80 -49,-49 -80,-117 -80,-192 0,-74 31,-142 80,-191l0 0c50,-50 117,-80 192,-80 75,0 142,31 192,80 49,49 79,117 79,191zm-213 59c15,-15 24,-36 24,-59 0,-22 -9,-43 -24,-58 -15,-15 -36,-24 -58,-24 -23,0 -44,9 -59,24l0 0c-15,15 -24,35 -24,58 0,23 9,44 24,59 15,15 36,24 59,24 23,0 43,-9 58,-24z"/>
    <rect fill="#3D4752" x="19560" y="7970" width="213" height="680"/>
    <path fill="#3D4752" fill-rule="nonzero" d="M19654 8556l24 0 0 -491 -24 0 0 491zm118 189l-307 0 0 -869 402 0 0 869 -95 0z"/>
    <path fill="white" d="M19843 7800c0,98 -79,177 -177,177 -98,0 -177,-79 -177,-177 0,-97 79,-176 177,-176 98,0 177,79 177,176l0 0z"/>
    <path fill="#3D4752" fill-rule="nonzero" d="M19937 7800c0,76 -30,143 -79,192 -49,49 -117,80 -192,80 -75,0 -143,-31 -192,-80 -49,-49 -79,-117 -79,-192 0,-74 30,-142 79,-191l1 0c49,-50 117,-80 191,-80 75,0 142,31 192,80l0 0c27,27 49,60 62,97l17 0 0 81c0,5 0,9 0,13l0 0zm-213 59c14,-14 22,-31 24,-50l0 -9c0,-22 -9,-43 -24,-58l0 0c-14,-15 -35,-24 -58,-24 -23,0 -44,9 -58,24l-1 0c-14,15 -23,35 -23,58 0,23 9,44 24,59 14,15 35,24 58,24 23,0 43,-9 58,-24z"/>
    <rect fill="#3D4752" x="17330" y="10010" width="213" height="680"/>
    <path fill="#3D4752" fill-rule="nonzero" d="M17425 10595l23 0 0 -491 -23 0 0 491zm118 189l-307 0 0 -869 401 0 0 869 -94 0z"/>
    <path fill="white" d="M17613 10860c-1,94 -78,170 -172,170 -2,0 -4,0 -6,0 -2,0 -4,0 -5,0 -94,0 -170,-77 -170,-170 0,0 0,0 0,0 1,-95 77,-171 171,-171 2,0 3,1 4,1 1,-1 3,-1 4,-1 95,0 172,76 174,171l0 0z"/>
    <path fill="#3D4752" fill-rule="nonzero" d="M17704 10903c-10,56 -37,106 -76,144 -48,48 -114,77 -187,77l-1 0 -9 0 -1 0c-73,0 -140,-30 -187,-77 -48,-48 -78,-114 -78,-187l1 -1c0,-74 30,-140 78,-187l0 0c49,-47 115,-77 187,-77l1 0 7 0 0 0c73,0 139,29 187,77 49,47 80,112 81,185l1 41 -4 5zm-208 10c14,-14 23,-33 23,-53 -1,-21 -10,-40 -24,-53 -14,-14 -34,-23 -56,-23l0 0 -8 0 0 0c-21,0 -40,8 -54,22l0 0c-14,14 -23,33 -23,53l0 0 0 1c0,20 9,39 22,53 14,14 33,22 54,22l0 1 11 0 0 -1c21,0 41,-8 55,-22z"/>
    <rect fill="#3D4752" x="18605" y="10010" width="213" height="680"/>
    <path fill="#3D4752" fill-rule="nonzero" d="M18699 10595l24 0 0 -491 -24 0 0 491zm119 189l-308 0 0 -869 402 0 0 869 -94 0z"/>
    <path fill="white" d="M18886 10860c-1,94 -78,170 -172,170 -2,0 -4,0 -6,0 -2,0 -4,0 -6,0 -94,0 -170,-77 -170,-170 0,0 0,0 0,0 1,-95 78,-171 172,-171 1,0 3,1 4,1 1,-1 3,-1 4,-1 94,0 172,76 174,171l0 0z"/>
    <path fill="#3D4752" fill-rule="nonzero" d="M18980 10861c-1,73 -31,139 -79,186 -49,48 -115,77 -187,77l-1 0 -10 0 -1 0c-73,0 -139,-30 -187,-77 -47,-48 -77,-114 -77,-187l0 -1c1,-74 31,-140 79,-187l0 0c48,-47 114,-77 187,-77l1 0 6 0 1 0c72,0 139,29 187,77 39,38 67,88 77,144l5 5 -1 40zm-211 52c13,-14 22,-32 23,-52 -1,-21 -10,-41 -24,-54 -14,-14 -34,-23 -56,-23l0 0 -8 0 0 0c-21,0 -40,8 -54,22l0 0c-14,14 -23,33 -24,53l1 0 0 1c0,20 8,39 22,53 14,14 32,22 53,22l0 1 12 0 0 -1c21,0 41,-8 55,-22z"/>
    <rect fill="#3D4752" x="19879" y="10010" width="213" height="680"/>
    <path fill="#3D4752" fill-rule="nonzero" d="M19974 10595l24 0 0 -491 -24 0 0 491zm118 189l-307 0 0 -869 402 0 0 869 -95 0z"/>
    <path fill="white" d="M20163 10860c-2,94 -79,170 -173,170 -2,0 -4,0 -6,0 -1,0 -3,0 -5,0 -94,0 -170,-77 -170,-170 0,0 0,0 0,0 1,-95 78,-171 172,-171 1,0 2,1 3,1 2,-1 3,-1 4,-1 95,0 172,76 175,171l0 0z"/>
    <path fill="#3D4752" fill-rule="nonzero" d="M20257 10861c-1,73 -32,139 -80,186 -48,48 -114,77 -187,77l-1 0 -9 0 -1 0c-73,0 -139,-30 -187,-77 -48,-48 -78,-114 -78,-187l1 -1c1,-74 31,-140 78,-187 49,-47 115,-77 188,-77l1 0 6 0 0 0c73,0 139,29 188,77 48,47 79,112 81,185l0 2 0 2zm-212 52c14,-14 23,-32 24,-53l-1 0 0 0 0 -1c-1,-20 -10,-39 -24,-52 -14,-14 -34,-23 -56,-23l0 0 -7 0 0 0c-22,0 -41,8 -55,22 -14,14 -23,33 -23,53l0 0 0 1c0,20 9,39 22,53 14,14 33,22 54,22l0 1 11 0 0 -1c22,0 41,-8 55,-22z"/>
    <circle fill="white" cx="11112" cy="4114" r="511"/>
    <path fill="#3D4752" fill-rule="nonzero" d="M23036 12649l0 701 0 0c0,57 -23,109 -61,147 -38,38 -90,61 -147,61l-3753 0c-6,0 -11,2 -15,6l0 0c-3,4 -6,9 -6,15l0 1162 -188 0 0 -1162c0,-57 24,-109 61,-147l1 -1c38,-38 90,-61 147,-61l3753 0c6,0 11,-2 15,-6 3,-4 6,-9 6,-14l-1 0 0 -701 188 0z"/>
    <path fill="#3D4752" fill-rule="nonzero" d="M23036 12390l0 978 2019 0c48,0 92,20 124,52 31,31 51,75 51,124l0 1258 -188 0 0 -1246 -2019 0c-48,0 -91,-19 -123,-51l0 0c-32,-32 -52,-75 -52,-124l0 -991 188 0z"/>
   </g>
  </g>
 </g>
</svg>
